<?xml version="1.0" encoding="UTF-8" standalone="no"?>
<!-- Generator: Adobe Illustrator 19.0.0, SVG Export Plug-In . SVG Version: 6.00 Build 0)  -->

<svg
   xmlns:dc="http://purl.org/dc/elements/1.1/"
   xmlns:cc="http://creativecommons.org/ns#"
   xmlns:rdf="http://www.w3.org/1999/02/22-rdf-syntax-ns#"
   xmlns:svg="http://www.w3.org/2000/svg"
   xmlns="http://www.w3.org/2000/svg"
   xmlns:sodipodi="http://sodipodi.sourceforge.net/DTD/sodipodi-0.dtd"
   xmlns:inkscape="http://www.inkscape.org/namespaces/inkscape"
   version="1.1"
   id="Capa_1"
   x="0px"
   y="0px"
   viewBox="0 0 30 33.599998"
   xml:space="preserve"
   sodipodi:docname="marker.svg"
   width="30"
   height="33.599998"
   inkscape:version="0.92.3 (2405546, 2018-03-11)"><metadata
   id="metadata39"><rdf:RDF><cc:Work
       rdf:about=""><dc:format>image/svg+xml</dc:format><dc:type
         rdf:resource="http://purl.org/dc/dcmitype/StillImage" /><dc:title></dc:title></cc:Work></rdf:RDF></metadata><defs
   id="defs37" /><sodipodi:namedview
   pagecolor="#ffffff"
   bordercolor="#666666"
   borderopacity="1"
   objecttolerance="10"
   gridtolerance="10"
   guidetolerance="10"
   inkscape:pageopacity="0"
   inkscape:pageshadow="2"
   inkscape:window-width="1299"
   inkscape:window-height="713"
   id="namedview35"
   showgrid="false"
   inkscape:zoom="9.8169992"
   inkscape:cx="22.939194"
   inkscape:cy="6.9344898"
   inkscape:window-x="67"
   inkscape:window-y="27"
   inkscape:window-maximized="1"
   inkscape:current-layer="Capa_1" />
<path
   style="fill:#e6e6e6;stroke-width:0.73022312"
   d="m 25.606583,3.4398371 v 0 c -5.857428,-4.5864493 -15.354917,-4.5864493 -21.2131702,0 v 0 C -0.88471038,7.5726757 -1.4788712,15.35438 3.0004373,20.030639 L 15.000001,33.6 26.999564,20.030639 C 31.478869,15.35438 30.884713,7.5726757 25.606583,3.4398371 Z M 15.146063,15.507518 c -2.734788,0 -4.951332,-1.735585 -4.951332,-3.876957 0,-2.1413749 2.216544,-3.8769625 4.951332,-3.8769625 2.734787,0 4.951338,1.7355876 4.951338,3.8769625 0,2.141372 -2.216551,3.876957 -4.951338,3.876957 z"
   id="path2-3"
   inkscape:connector-curvature="0" /><path
   style="fill:#1e6291;stroke-width:0.6845842;fill-opacity:1"
   d="m 24.943674,3.8548443 v 0 c -5.49134,-4.2997919 -14.395235,-4.2997919 -19.8873491,0 v 0 C 0.10808358,7.7293813 -0.44894182,15.02473 3.7504099,19.408724 L 15,32.13 26.24959,19.408724 C 30.44894,15.02473 29.891916,7.7293813 24.943674,3.8548443 Z m -9.80674,11.3134547 c -2.563863,0 -4.641876,-1.627113 -4.641876,-3.634651 0,-2.0075379 2.078013,-3.6346503 4.641876,-3.6346503 2.563864,0 4.641879,1.6271124 4.641879,3.6346503 0,2.007538 -2.078015,3.634651 -4.641879,3.634651 z"
   id="path2"
   inkscape:connector-curvature="0" />
<g
   id="g4"
   transform="translate(0,-18.4)">
</g>
<g
   id="g6"
   transform="translate(0,-18.4)">
</g>
<g
   id="g8"
   transform="translate(0,-18.4)">
</g>
<g
   id="g10"
   transform="translate(0,-18.4)">
</g>
<g
   id="g12"
   transform="translate(0,-18.4)">
</g>
<g
   id="g14"
   transform="translate(0,-18.4)">
</g>
<g
   id="g16"
   transform="translate(0,-18.4)">
</g>
<g
   id="g18"
   transform="translate(0,-18.4)">
</g>
<g
   id="g20"
   transform="translate(0,-18.4)">
</g>
<g
   id="g22"
   transform="translate(0,-18.4)">
</g>
<g
   id="g24"
   transform="translate(0,-18.4)">
</g>
<g
   id="g26"
   transform="translate(0,-18.4)">
</g>
<g
   id="g28"
   transform="translate(0,-18.4)">
</g>
<g
   id="g30"
   transform="translate(0,-18.4)">
</g>
<g
   id="g32"
   transform="translate(0,-18.4)">
</g>
<ellipse
   style="fill:#f1f1f1;stroke-width:1.18134749;fill-opacity:1"
   id="path3744"
   cx="15"
   cy="11.776019"
   rx="5.3638954"
   ry="4.1999998" /></svg>